<?xml version="1.0" encoding="utf-8"?>
<!-- created with bpmn-js / http://bpmn.io -->
<!DOCTYPE svg PUBLIC "-//W3C//DTD SVG 1.1//EN" "http://www.w3.org/Graphics/SVG/1.1/DTD/svg11.dtd">
<svg xmlns="http://www.w3.org/2000/svg" xmlns:xlink="http://www.w3.org/1999/xlink" width="2360" height="940" viewBox="125 25 2360 940" version="1.1"><rect x="125" y="25" width="2360" height="940" fill="white"/><g class="djs-group"><g class="djs-element djs-shape" data-element-id="Participant_Sendungsakte" style="display: block;" transform="matrix(1 0 0 1 160 140)"><g class="djs-visual"><rect x="0" y="0" width="2290" height="750" rx="0" ry="0" style="stroke-linecap: round; stroke-linejoin: round; stroke: rgb(34, 36, 42); stroke-width: 1.5px; fill: white; fill-opacity: 0.95;"/><path style="fill: none; stroke-linecap: round; stroke-linejoin: round; stroke: rgb(34, 36, 42); stroke-width: 1.5px;" d="M30,0L30,750"/><text lineHeight="1.2" class="djs-label" style="font-family: Arial, sans-serif; font-size: 12px; font-weight: normal; fill: rgb(34, 36, 42);" transform="matrix(-1.83697e-16 -1 1 -1.83697e-16 0 750)"><tspan x="184.2158203125" y="18.6">Sendungsakte: Vollständigkeits- und Konsistenzprüfung vor der Ausfuhr</tspan></text></g><rect class="djs-hit djs-hit-all" x="0" y="0" width="2290" height="750" style="fill: none; stroke-opacity: 0; stroke: white; stroke-width: 15px;"/></g><g class="djs-children"><g class="djs-group"><g class="djs-element djs-shape" data-element-id="Lane_Zoll" style="display: block;" transform="matrix(1 0 0 1 190 740)"><g class="djs-visual"><rect x="0" y="0" width="2260" height="150" rx="0" ry="0" style="stroke-linecap: round; stroke-linejoin: round; stroke: rgb(34, 36, 42); stroke-width: 1.5px; fill: white; fill-opacity: 0.25;"/><text lineHeight="1.2" class="djs-label" style="font-family: Arial, sans-serif; font-size: 12px; font-weight: normal; fill: rgb(34, 36, 42);" transform="matrix(-1.83697e-16 -1 1 -1.83697e-16 0 150)"><tspan x="39.6591796875" y="11.4">Zollvertreter / </tspan><tspan x="36.31640625" y="25.799999999999997">Zollverwaltung</tspan></text></g><rect class="djs-hit djs-hit-all" x="0" y="0" width="2260" height="150" style="fill: none; stroke-opacity: 0; stroke: white; stroke-width: 15px;"/></g></g><g class="djs-group"><g class="djs-element djs-shape" data-element-id="Lane_ZollPilot" style="display: block;" transform="matrix(1 0 0 1 190 590)"><g class="djs-visual"><rect x="0" y="0" width="2260" height="150" rx="0" ry="0" style="stroke-linecap: round; stroke-linejoin: round; stroke: rgb(34, 36, 42); stroke-width: 1.5px; fill: white; fill-opacity: 0.25;"/><text lineHeight="1.2" class="djs-label" style="font-family: Arial, sans-serif; font-size: 12px; font-weight: normal; fill: rgb(34, 36, 42);" transform="matrix(-1.83697e-16 -1 1 -1.83697e-16 0 150)"><tspan x="53.66015625" y="18.6">ZollPilot</tspan></text></g><rect class="djs-hit djs-hit-all" x="0" y="0" width="2260" height="150" style="fill: none; stroke-opacity: 0; stroke: white; stroke-width: 15px;"/></g></g><g class="djs-group"><g class="djs-element djs-shape" data-element-id="Lane_Sach" style="display: block;" transform="matrix(1 0 0 1 190 440)"><g class="djs-visual"><rect x="0" y="0" width="2260" height="150" rx="0" ry="0" style="stroke-linecap: round; stroke-linejoin: round; stroke: rgb(34, 36, 42); stroke-width: 1.5px; fill: white; fill-opacity: 0.25;"/><text lineHeight="1.2" class="djs-label" style="font-family: Arial, sans-serif; font-size: 12px; font-weight: normal; fill: rgb(34, 36, 42);" transform="matrix(-1.83697e-16 -1 1 -1.83697e-16 0 150)"><tspan x="10.623046875" y="18.6">Sachbearbeitung Export</tspan></text></g><rect class="djs-hit djs-hit-all" x="0" y="0" width="2260" height="150" style="fill: none; stroke-opacity: 0; stroke: white; stroke-width: 15px;"/></g></g><g class="djs-group"><g class="djs-element djs-shape" data-element-id="Lane_Spediteur" style="display: block;" transform="matrix(1 0 0 1 190 290)"><g class="djs-visual"><rect x="0" y="0" width="2260" height="150" rx="0" ry="0" style="stroke-linecap: round; stroke-linejoin: round; stroke: rgb(34, 36, 42); stroke-width: 1.5px; fill: white; fill-opacity: 0.25;"/><text lineHeight="1.2" class="djs-label" style="font-family: Arial, sans-serif; font-size: 12px; font-weight: normal; fill: rgb(34, 36, 42);" transform="matrix(-1.83697e-16 -1 1 -1.83697e-16 0 150)"><tspan x="25.98046875" y="18.6">Spediteur / Carrier</tspan></text></g><rect class="djs-hit djs-hit-all" x="0" y="0" width="2260" height="150" style="fill: none; stroke-opacity: 0; stroke: white; stroke-width: 15px;"/></g></g><g class="djs-group"><g class="djs-element djs-shape" data-element-id="Lane_Lieferant" style="display: block;" transform="matrix(1 0 0 1 190 140)"><g class="djs-visual"><rect x="0" y="0" width="2260" height="150" rx="0" ry="0" style="stroke-linecap: round; stroke-linejoin: round; stroke: rgb(34, 36, 42); stroke-width: 1.5px; fill: white; fill-opacity: 0.25;"/><text lineHeight="1.2" class="djs-label" style="font-family: Arial, sans-serif; font-size: 12px; font-weight: normal; fill: rgb(34, 36, 42);" transform="matrix(-1.83697e-16 -1 1 -1.83697e-16 0 150)"><tspan x="20.9677734375" y="18.6">Lieferant / Verkäufer</tspan></text></g><rect class="djs-hit djs-hit-all" x="0" y="0" width="2260" height="150" style="fill: none; stroke-opacity: 0; stroke: white; stroke-width: 15px;"/></g></g><g class="djs-group"><g class="djs-element djs-shape" data-element-id="Start" style="display: block;" transform="matrix(1 0 0 1 302 497)"><g class="djs-visual"><circle cx="18" cy="18" r="18" style="stroke-linecap: round; stroke-linejoin: round; stroke: rgb(34, 36, 42); stroke-width: 2px; fill: white; fill-opacity: 0.95;"/></g><rect class="djs-hit djs-hit-all" x="0" y="0" width="36" height="36" style="fill: none; stroke-opacity: 0; stroke: white; stroke-width: 15px;"/></g></g><g class="djs-group"><g class="djs-element djs-shape" data-element-id="Start_label" style="display: block;" transform="matrix(1 0 0 1 275 537)"><g class="djs-visual"><text lineHeight="1.2" class="djs-label" style="font-family: Arial, sans-serif; font-size: 11px; font-weight: normal; fill: rgb(34, 36, 42);"><tspan x="0.347412109375" y="9.899999999999999">Sendung angelegt</tspan></text></g><rect class="djs-hit djs-hit-all" x="0" y="0" width="90" height="14" style="fill: none; stroke-opacity: 0; stroke: white; stroke-width: 15px;"/></g></g><g class="djs-group"><g class="djs-element djs-shape" data-element-id="Mail" style="display: block;" transform="matrix(1 0 0 1 450 475)"><g class="djs-visual"><rect x="0" y="0" width="140" height="80" rx="10" ry="10" style="stroke-linecap: round; stroke-linejoin: round; stroke: rgb(34, 36, 42); stroke-width: 2px; fill: white; fill-opacity: 0.95;"/><text lineHeight="1.2" class="djs-label" style="font-family: Arial, sans-serif; font-size: 12px; font-weight: normal; fill: rgb(34, 36, 42);"><tspan x="14.306640625" y="36.4">E-Mail mit Anhängen </tspan><tspan x="39.9765625" y="50.8">empfangen</tspan></text></g><rect class="djs-hit djs-hit-all" x="0" y="0" width="140" height="80" style="fill: none; stroke-opacity: 0; stroke: white; stroke-width: 15px;"/></g></g><g class="djs-group"><g class="djs-element djs-shape" data-element-id="Rechnung" style="display: block;" transform="matrix(1 0 0 1 450 175)"><g class="djs-visual"><rect x="0" y="0" width="140" height="80" rx="10" ry="10" style="stroke-linecap: round; stroke-linejoin: round; stroke: rgb(34, 36, 42); stroke-width: 2px; fill: white; fill-opacity: 0.95;"/><text lineHeight="1.2" class="djs-label" style="font-family: Arial, sans-serif; font-size: 12px; font-weight: normal; fill: rgb(34, 36, 42);"><tspan x="30.9677734375" y="36.4">Rechnung und </tspan><tspan x="17.306640625" y="50.8">Packliste ausstellen</tspan></text></g><rect class="djs-hit djs-hit-all" x="0" y="0" width="140" height="80" style="fill: none; stroke-opacity: 0; stroke: white; stroke-width: 15px;"/></g></g><g class="djs-group"><g class="djs-element djs-shape" data-element-id="BL" style="display: block;" transform="matrix(1 0 0 1 450 325)"><g class="djs-visual"><rect x="0" y="0" width="140" height="80" rx="10" ry="10" style="stroke-linecap: round; stroke-linejoin: round; stroke: rgb(34, 36, 42); stroke-width: 2px; fill: white; fill-opacity: 0.95;"/><text lineHeight="1.2" class="djs-label" style="font-family: Arial, sans-serif; font-size: 12px; font-weight: normal; fill: rgb(34, 36, 42);"><tspan x="32.3095703125" y="36.4">B/L ausstellen </tspan><tspan x="16.3076171875" y="50.8">(Entwurf, dann final)</tspan></text></g><rect class="djs-hit djs-hit-all" x="0" y="0" width="140" height="80" style="fill: none; stroke-opacity: 0; stroke: white; stroke-width: 15px;"/></g></g><g class="djs-group"><g class="djs-element djs-shape" data-element-id="Einreichen" style="display: block;" transform="matrix(1 0 0 1 650 475)"><g class="djs-visual"><rect x="0" y="0" width="140" height="80" rx="10" ry="10" style="stroke-linecap: round; stroke-linejoin: round; stroke: rgb(34, 36, 42); stroke-width: 2px; fill: white; fill-opacity: 0.95;"/><text lineHeight="1.2" class="djs-label" style="font-family: Arial, sans-serif; font-size: 12px; font-weight: normal; fill: rgb(34, 36, 42);"><tspan x="9.291015625" y="36.4">Stammdaten angeben, </tspan><tspan x="21.96484375" y="50.8">Belege einreichen</tspan></text></g><rect class="djs-hit djs-hit-all" x="0" y="0" width="140" height="80" style="fill: none; stroke-opacity: 0; stroke: white; stroke-width: 15px;"/></g></g><g class="djs-group"><g class="djs-element djs-shape" data-element-id="Lesen" style="display: block;" transform="matrix(1 0 0 1 850 625)"><g class="djs-visual"><rect x="0" y="0" width="140" height="80" rx="10" ry="10" style="stroke-linecap: round; stroke-linejoin: round; stroke: rgb(34, 36, 42); stroke-width: 2px; fill: white; fill-opacity: 0.95;"/><text lineHeight="1.2" class="djs-label" style="font-family: Arial, sans-serif; font-size: 12px; font-weight: normal; fill: rgb(34, 36, 42);"><tspan x="41.974609375" y="29.200000000000003">Lesen und </tspan><tspan x="35.6552734375" y="43.6">klassifizieren </tspan><tspan x="13.3193359375" y="58">(Textlayer oder OCR)</tspan></text></g><rect class="djs-hit djs-hit-all" x="0" y="0" width="140" height="80" style="fill: none; stroke-opacity: 0; stroke: white; stroke-width: 15px;"/></g></g><g class="djs-group"><g class="djs-element djs-shape" data-element-id="Pruefen" style="display: block;" transform="matrix(1 0 0 1 1050 625)"><g class="djs-visual"><rect x="0" y="0" width="140" height="80" rx="10" ry="10" style="stroke-linecap: round; stroke-linejoin: round; stroke: rgb(34, 36, 42); stroke-width: 2px; fill: white; fill-opacity: 0.95;"/><text lineHeight="1.2" class="djs-label" style="font-family: Arial, sans-serif; font-size: 12px; font-weight: normal; fill: rgb(34, 36, 42);"><tspan x="37.9755859375" y="29.200000000000003">Akte bauen, </tspan><tspan x="25.650390625" y="43.6">Pflichtmatrix und </tspan><tspan x="32.306640625" y="58">Regeln prüfen</tspan></text></g><rect class="djs-hit djs-hit-all" x="0" y="0" width="140" height="80" style="fill: none; stroke-opacity: 0; stroke: white; stroke-width: 15px;"/></g></g><g class="djs-group"><g class="djs-element djs-shape" data-element-id="Freigabereif" style="display: block;" transform="matrix(1 0 0 1 1295 640)"><g class="djs-visual"><polygon points="25,0 50,25 25,50 0,25" style="stroke-linecap: round; stroke-linejoin: round; stroke: rgb(34, 36, 42); stroke-width: 2px; fill: white; fill-opacity: 0.95;"/></g><rect class="djs-hit djs-hit-all" x="0" y="0" width="50" height="50" style="fill: none; stroke-opacity: 0; stroke: white; stroke-width: 15px;"/></g></g><g class="djs-group"><g class="djs-element djs-shape" data-element-id="Freigabereif_label" style="display: block;" transform="matrix(1 0 0 1 1289 694)"><g class="djs-visual"><text lineHeight="1.2" class="djs-label" style="font-family: Arial, sans-serif; font-size: 11px; font-weight: normal; fill: rgb(34, 36, 42);"><tspan x="0.425048828125" y="9.899999999999999">freigabereif?</tspan></text></g><rect class="djs-hit djs-hit-all" x="0" y="0" width="62" height="14" style="fill: none; stroke-opacity: 0; stroke: white; stroke-width: 15px;"/></g></g><g class="djs-group"><g class="djs-element djs-shape" data-element-id="Anmelden" style="display: block;" transform="matrix(1 0 0 1 1450 775)"><g class="djs-visual"><rect x="0" y="0" width="140" height="80" rx="10" ry="10" style="stroke-linecap: round; stroke-linejoin: round; stroke: rgb(34, 36, 42); stroke-width: 2px; fill: white; fill-opacity: 0.95;"/><text lineHeight="1.2" class="djs-label" style="font-family: Arial, sans-serif; font-size: 12px; font-weight: normal; fill: rgb(34, 36, 42);"><tspan x="17.9658203125" y="36.4">Ausfuhranmeldung, </tspan><tspan x="32.6669921875" y="50.8">ABD mit MRN</tspan></text></g><rect class="djs-hit djs-hit-all" x="0" y="0" width="140" height="80" style="fill: none; stroke-opacity: 0; stroke: white; stroke-width: 15px;"/></g></g><g class="djs-group"><g class="djs-element djs-shape" data-element-id="Ende" style="display: block;" transform="matrix(1 0 0 1 1702 497)"><g class="djs-visual"><circle cx="18" cy="18" r="18" style="stroke-linecap: round; stroke-linejoin: round; stroke: rgb(34, 36, 42); stroke-width: 4px; fill: white; fill-opacity: 0.95;"/></g><rect class="djs-hit djs-hit-all" x="0" y="0" width="36" height="36" style="fill: none; stroke-opacity: 0; stroke: white; stroke-width: 15px;"/></g></g><g class="djs-group"><g class="djs-element djs-shape" data-element-id="Ende_label" style="display: block;" transform="matrix(1 0 0 1 1683 537)"><g class="djs-visual"><text lineHeight="1.2" class="djs-label" style="font-family: Arial, sans-serif; font-size: 11px; font-weight: normal; fill: rgb(34, 36, 42);"><tspan x="0.203125" y="9.899999999999999">Akte konsistent</tspan></text></g><rect class="djs-hit djs-hit-all" x="0" y="0" width="75" height="14" style="fill: none; stroke-opacity: 0; stroke: white; stroke-width: 15px;"/></g></g><g class="djs-group"><g class="djs-element djs-shape" data-element-id="Formulieren" style="display: block;" transform="matrix(1 0 0 1 1450 625)"><g class="djs-visual"><rect x="0" y="0" width="140" height="80" rx="10" ry="10" style="stroke-linecap: round; stroke-linejoin: round; stroke: rgb(34, 36, 42); stroke-width: 2px; fill: white; fill-opacity: 0.95;"/><text lineHeight="1.2" class="djs-label" style="font-family: Arial, sans-serif; font-size: 12px; font-weight: normal; fill: rgb(34, 36, 42);"><tspan x="30.30859375" y="29.200000000000003">Nachforderung </tspan><tspan x="22.984375" y="43.6">formulieren (Feld, </tspan><tspan x="24.314453125" y="58">Grund, Adressat)</tspan></text></g><rect class="djs-hit djs-hit-all" x="0" y="0" width="140" height="80" style="fill: none; stroke-opacity: 0; stroke: white; stroke-width: 15px;"/></g></g><g class="djs-group"><g class="djs-element djs-shape" data-element-id="Uebersteuern" style="display: block;" transform="matrix(1 0 0 1 1250 475)"><g class="djs-visual"><rect x="0" y="0" width="140" height="80" rx="10" ry="10" style="stroke-linecap: round; stroke-linejoin: round; stroke: rgb(34, 36, 42); stroke-width: 2px; fill: white; fill-opacity: 0.95;"/><text lineHeight="1.2" class="djs-label" style="font-family: Arial, sans-serif; font-size: 12px; font-weight: normal; fill: rgb(34, 36, 42);"><tspan x="9.6455078125" y="36.4">Übersteuern mit Name</tspan><tspan x="25.626953125" y="50.8">und Begründung</tspan></text></g><rect class="djs-hit djs-hit-all" x="0" y="0" width="140" height="80" style="fill: none; stroke-opacity: 0; stroke: white; stroke-width: 15px;"/></g></g><g class="djs-group"><g class="djs-element djs-shape" data-element-id="Eskalieren" style="display: block;" transform="matrix(1 0 0 1 1850 625)"><g class="djs-visual"><rect x="0" y="0" width="140" height="80" rx="10" ry="10" style="stroke-linecap: round; stroke-linejoin: round; stroke: rgb(34, 36, 42); stroke-width: 2px; fill: white; fill-opacity: 0.95;"/><text lineHeight="1.2" class="djs-label" style="font-family: Arial, sans-serif; font-size: 12px; font-weight: normal; fill: rgb(34, 36, 42);"><tspan x="28.9697265625" y="36.4">Erinnerung und </tspan><tspan x="12.7509765625" y="50.8">Eskalation vor Cut-off</tspan></text></g><rect class="djs-hit djs-hit-all" x="0" y="0" width="140" height="80" style="fill: none; stroke-opacity: 0; stroke: white; stroke-width: 15px;"/></g></g><g class="djs-group"><g class="djs-element djs-shape" data-element-id="Versenden" style="display: block;" transform="matrix(1 0 0 1 2050 475)"><g class="djs-visual"><rect x="0" y="0" width="140" height="80" rx="10" ry="10" style="stroke-linecap: round; stroke-linejoin: round; stroke: rgb(34, 36, 42); stroke-width: 2px; fill: white; fill-opacity: 0.95;"/><text lineHeight="1.2" class="djs-label" style="font-family: Arial, sans-serif; font-size: 12px; font-weight: normal; fill: rgb(34, 36, 42);"><tspan x="30.30859375" y="36.4">Nachforderung </tspan><tspan x="41.98046875" y="50.8">versenden</tspan></text></g><rect class="djs-hit djs-hit-all" x="0" y="0" width="140" height="80" style="fill: none; stroke-opacity: 0; stroke: white; stroke-width: 15px;"/></g></g><g class="djs-group"><g class="djs-element djs-shape" data-element-id="Nachliefern" style="display: block;" transform="matrix(1 0 0 1 2250 175)"><g class="djs-visual"><rect x="0" y="0" width="140" height="80" rx="10" ry="10" style="stroke-linecap: round; stroke-linejoin: round; stroke: rgb(34, 36, 42); stroke-width: 2px; fill: white; fill-opacity: 0.95;"/><text lineHeight="1.2" class="djs-label" style="font-family: Arial, sans-serif; font-size: 12px; font-weight: normal; fill: rgb(34, 36, 42);"><tspan x="27.419921875" y="36.4">Fehlenden Wert </tspan><tspan x="40.6474609375" y="50.8">nachliefern</tspan></text></g><rect class="djs-hit djs-hit-all" x="0" y="0" width="140" height="80" style="fill: none; stroke-opacity: 0; stroke: white; stroke-width: 15px;"/></g></g><g class="djs-group"><g class="djs-element djs-shape" data-element-id="Zuordnen" style="display: block;" transform="matrix(1 0 0 1 2250 625)"><g class="djs-visual"><rect x="0" y="0" width="140" height="80" rx="10" ry="10" style="stroke-linecap: round; stroke-linejoin: round; stroke: rgb(34, 36, 42); stroke-width: 2px; fill: white; fill-opacity: 0.95;"/><text lineHeight="1.2" class="djs-label" style="font-family: Arial, sans-serif; font-size: 12px; font-weight: normal; fill: rgb(34, 36, 42);"><tspan x="25.6474609375" y="36.4">Antwort der Akte </tspan><tspan x="44.98046875" y="50.8">zuordnen</tspan></text></g><rect class="djs-hit djs-hit-all" x="0" y="0" width="140" height="80" style="fill: none; stroke-opacity: 0; stroke: white; stroke-width: 15px;"/></g></g><g class="djs-group"><g class="djs-element djs-connection" data-element-id="Flow_0" style="display: block;"><g class="djs-visual"><defs><marker id="marker-1" viewBox="0 0 20 20" refX="11" refY="10" markerWidth="10" markerHeight="10" orient="auto"><path d="M 1 5 L 11 10 L 1 15 Z" style="stroke-linecap: round; stroke-linejoin: round; stroke: rgb(34, 36, 42); stroke-width: 1px; fill: rgb(34, 36, 42);"/></marker></defs><path data-corner-radius="5" style="fill: none; stroke-linecap: round; stroke-linejoin: round; stroke: rgb(34, 36, 42); stroke-width: 2px; marker-2: url('#marker-1');" d="M338,515L389,515C391.5,515,394,512.5,394,510L394,220C394,217.5,396.5,215,399,215L450,215"/></g><path d="M338,515L394,515L394,215L450,215" class="djs-hit djs-hit-stroke" style="fill: none; stroke-opacity: 0; stroke: white; stroke-width: 15px;"/></g></g><g class="djs-group"><g class="djs-element djs-connection" data-element-id="Flow_1" style="display: block;"><g class="djs-visual"><defs><marker id="marker-3" viewBox="0 0 20 20" refX="11" refY="10" markerWidth="10" markerHeight="10" orient="auto"><path d="M 1 5 L 11 10 L 1 15 Z" style="stroke-linecap: round; stroke-linejoin: round; stroke: rgb(34, 36, 42); stroke-width: 1px; fill: rgb(34, 36, 42);"/></marker></defs><path data-corner-radius="5" style="fill: none; stroke-linecap: round; stroke-linejoin: round; stroke: rgb(34, 36, 42); stroke-width: 2px; marker-2: url('#marker-3');" d="M338,515L389,515C391.5,515,394,512.5,394,510L394,370C394,367.5,396.5,365,399,365L450,365"/></g><path d="M338,515L394,515L394,365L450,365" class="djs-hit djs-hit-stroke" style="fill: none; stroke-opacity: 0; stroke: white; stroke-width: 15px;"/></g></g><g class="djs-group"><g class="djs-element djs-connection" data-element-id="Flow_2" style="display: block;"><g class="djs-visual"><defs><marker id="marker-4" viewBox="0 0 20 20" refX="11" refY="10" markerWidth="10" markerHeight="10" orient="auto"><path d="M 1 5 L 11 10 L 1 15 Z" style="stroke-linecap: round; stroke-linejoin: round; stroke: rgb(34, 36, 42); stroke-width: 1px; fill: rgb(34, 36, 42);"/></marker></defs><path data-corner-radius="5" style="fill: none; stroke-linecap: round; stroke-linejoin: round; stroke: rgb(34, 36, 42); stroke-width: 2px; marker-2: url('#marker-4');" d="M338,515L450,515"/></g><path d="M338,515L450,515" class="djs-hit djs-hit-stroke" style="fill: none; stroke-opacity: 0; stroke: white; stroke-width: 15px;"/></g></g><g class="djs-group"><g class="djs-element djs-connection" data-element-id="Flow_3" style="display: block;"><g class="djs-visual"><defs><marker id="marker-5" viewBox="0 0 20 20" refX="11" refY="10" markerWidth="10" markerHeight="10" orient="auto"><path d="M 1 5 L 11 10 L 1 15 Z" style="stroke-linecap: round; stroke-linejoin: round; stroke: rgb(34, 36, 42); stroke-width: 1px; fill: rgb(34, 36, 42);"/></marker></defs><path data-corner-radius="5" style="fill: none; stroke-linecap: round; stroke-linejoin: round; stroke: rgb(34, 36, 42); stroke-width: 2px; marker-2: url('#marker-5');" d="M590,215L615,215C617.5,215,620,217.5,620,220L620,510C620,512.5,622.5,515,625,515L650,515"/></g><path d="M590,215L620,215L620,515L650,515" class="djs-hit djs-hit-stroke" style="fill: none; stroke-opacity: 0; stroke: white; stroke-width: 15px;"/></g></g><g class="djs-group"><g class="djs-element djs-connection" data-element-id="Flow_4" style="display: block;"><g class="djs-visual"><defs><marker id="marker-6" viewBox="0 0 20 20" refX="11" refY="10" markerWidth="10" markerHeight="10" orient="auto"><path d="M 1 5 L 11 10 L 1 15 Z" style="stroke-linecap: round; stroke-linejoin: round; stroke: rgb(34, 36, 42); stroke-width: 1px; fill: rgb(34, 36, 42);"/></marker></defs><path data-corner-radius="5" style="fill: none; stroke-linecap: round; stroke-linejoin: round; stroke: rgb(34, 36, 42); stroke-width: 2px; marker-2: url('#marker-6');" d="M590,365L615,365C617.5,365,620,367.5,620,370L620,510C620,512.5,622.5,515,625,515L650,515"/></g><path d="M590,365L620,365L620,515L650,515" class="djs-hit djs-hit-stroke" style="fill: none; stroke-opacity: 0; stroke: white; stroke-width: 15px;"/></g></g><g class="djs-group"><g class="djs-element djs-connection" data-element-id="Flow_5" style="display: block;"><g class="djs-visual"><defs><marker id="marker-7" viewBox="0 0 20 20" refX="11" refY="10" markerWidth="10" markerHeight="10" orient="auto"><path d="M 1 5 L 11 10 L 1 15 Z" style="stroke-linecap: round; stroke-linejoin: round; stroke: rgb(34, 36, 42); stroke-width: 1px; fill: rgb(34, 36, 42);"/></marker></defs><path data-corner-radius="5" style="fill: none; stroke-linecap: round; stroke-linejoin: round; stroke: rgb(34, 36, 42); stroke-width: 2px; marker-2: url('#marker-7');" d="M590,515L615,515C617.5,515,620,517.5,620,520L620,603C620,605.5,622.5,608,625,608L2315,608C2317.5,608,2320,610.5,2320,613L2320,625"/></g><path d="M590,515L620,515L620,608L2320,608L2320,625" class="djs-hit djs-hit-stroke" style="fill: none; stroke-opacity: 0; stroke: white; stroke-width: 15px;"/></g></g><g class="djs-group"><g class="djs-element djs-connection" data-element-id="Flow_6" style="display: block;"><g class="djs-visual"><defs><marker id="marker-8" viewBox="0 0 20 20" refX="11" refY="10" markerWidth="10" markerHeight="10" orient="auto"><path d="M 1 5 L 11 10 L 1 15 Z" style="stroke-linecap: round; stroke-linejoin: round; stroke: rgb(34, 36, 42); stroke-width: 1px; fill: rgb(34, 36, 42);"/></marker></defs><path data-corner-radius="5" style="fill: none; stroke-linecap: round; stroke-linejoin: round; stroke: rgb(34, 36, 42); stroke-width: 2px; marker-2: url('#marker-8');" d="M790,515L815,515C817.5,515,820,517.5,820,520L820,660C820,662.5,822.5,665,825,665L850,665"/></g><path d="M790,515L820,515L820,665L850,665" class="djs-hit djs-hit-stroke" style="fill: none; stroke-opacity: 0; stroke: white; stroke-width: 15px;"/></g></g><g class="djs-group"><g class="djs-element djs-connection" data-element-id="Flow_7" style="display: block;"><g class="djs-visual"><defs><marker id="marker-9" viewBox="0 0 20 20" refX="11" refY="10" markerWidth="10" markerHeight="10" orient="auto"><path d="M 1 5 L 11 10 L 1 15 Z" style="stroke-linecap: round; stroke-linejoin: round; stroke: rgb(34, 36, 42); stroke-width: 1px; fill: rgb(34, 36, 42);"/></marker></defs><path data-corner-radius="5" style="fill: none; stroke-linecap: round; stroke-linejoin: round; stroke: rgb(34, 36, 42); stroke-width: 2px; marker-2: url('#marker-9');" d="M990,665L1050,665"/></g><path d="M990,665L1050,665" class="djs-hit djs-hit-stroke" style="fill: none; stroke-opacity: 0; stroke: white; stroke-width: 15px;"/></g></g><g class="djs-group"><g class="djs-element djs-connection" data-element-id="Flow_8" style="display: block;"><g class="djs-visual"><defs><marker id="marker-10" viewBox="0 0 20 20" refX="11" refY="10" markerWidth="10" markerHeight="10" orient="auto"><path d="M 1 5 L 11 10 L 1 15 Z" style="stroke-linecap: round; stroke-linejoin: round; stroke: rgb(34, 36, 42); stroke-width: 1px; fill: rgb(34, 36, 42);"/></marker></defs><path data-corner-radius="5" style="fill: none; stroke-linecap: round; stroke-linejoin: round; stroke: rgb(34, 36, 42); stroke-width: 2px; marker-2: url('#marker-10');" d="M1190,665L1295,665"/></g><path d="M1190,665L1295,665" class="djs-hit djs-hit-stroke" style="fill: none; stroke-opacity: 0; stroke: white; stroke-width: 15px;"/></g></g><g class="djs-group"><g class="djs-element djs-connection" data-element-id="Flow_9" style="display: block;"><g class="djs-visual"><defs><marker id="marker-11" viewBox="0 0 20 20" refX="11" refY="10" markerWidth="10" markerHeight="10" orient="auto"><path d="M 1 5 L 11 10 L 1 15 Z" style="stroke-linecap: round; stroke-linejoin: round; stroke: rgb(34, 36, 42); stroke-width: 1px; fill: rgb(34, 36, 42);"/></marker></defs><path data-corner-radius="5" style="fill: none; stroke-linecap: round; stroke-linejoin: round; stroke: rgb(34, 36, 42); stroke-width: 2px; marker-2: url('#marker-11');" d="M1345,665L1393,665C1395.5,665,1398,667.5,1398,670L1398,810C1398,812.5,1400.5,815,1403,815L1450,815"/></g><path d="M1345,665L1398,665L1398,815L1450,815" class="djs-hit djs-hit-stroke" style="fill: none; stroke-opacity: 0; stroke: white; stroke-width: 15px;"/></g></g><g class="djs-group"><g class="djs-element djs-shape" data-element-id="Flow_9_label" style="display: block;" transform="matrix(1 0 0 1 1409 730)"><g class="djs-visual"><text lineHeight="1.2" class="djs-label" style="font-family: Arial, sans-serif; font-size: 11px; font-weight: normal; fill: rgb(34, 36, 42);"><tspan x="0.21923828125" y="9.899999999999999">ja</tspan></text></g><rect class="djs-hit djs-hit-all" x="0" y="0" width="9" height="14" style="fill: none; stroke-opacity: 0; stroke: white; stroke-width: 15px;"/></g></g><g class="djs-group"><g class="djs-element djs-connection" data-element-id="Flow_10" style="display: block;"><g class="djs-visual"><defs><marker id="marker-12" viewBox="0 0 20 20" refX="11" refY="10" markerWidth="10" markerHeight="10" orient="auto"><path d="M 1 5 L 11 10 L 1 15 Z" style="stroke-linecap: round; stroke-linejoin: round; stroke: rgb(34, 36, 42); stroke-width: 1px; fill: rgb(34, 36, 42);"/></marker></defs><path data-corner-radius="5" style="fill: none; stroke-linecap: round; stroke-linejoin: round; stroke: rgb(34, 36, 42); stroke-width: 2px; marker-2: url('#marker-12');" d="M1590,815L1641,815C1643.5,815,1646,812.5,1646,810L1646,520C1646,517.5,1648.5,515,1651,515L1702,515"/></g><path d="M1590,815L1646,815L1646,515L1702,515" class="djs-hit djs-hit-stroke" style="fill: none; stroke-opacity: 0; stroke: white; stroke-width: 15px;"/></g></g><g class="djs-group"><g class="djs-element djs-connection" data-element-id="Flow_11" style="display: block;"><g class="djs-visual"><defs><marker id="marker-13" viewBox="0 0 20 20" refX="11" refY="10" markerWidth="10" markerHeight="10" orient="auto"><path d="M 1 5 L 11 10 L 1 15 Z" style="stroke-linecap: round; stroke-linejoin: round; stroke: rgb(34, 36, 42); stroke-width: 1px; fill: rgb(34, 36, 42);"/></marker></defs><path data-corner-radius="5" style="fill: none; stroke-linecap: round; stroke-linejoin: round; stroke: rgb(34, 36, 42); stroke-width: 2px; marker-2: url('#marker-13');" d="M1345,665L1450,665"/></g><path d="M1345,665L1450,665" class="djs-hit djs-hit-stroke" style="fill: none; stroke-opacity: 0; stroke: white; stroke-width: 15px;"/></g></g><g class="djs-group"><g class="djs-element djs-shape" data-element-id="Flow_11_label" style="display: block;" transform="matrix(1 0 0 1 1387 640)"><g class="djs-visual"><text lineHeight="1.2" class="djs-label" style="font-family: Arial, sans-serif; font-size: 11px; font-weight: normal; fill: rgb(34, 36, 42);"><tspan x="0.1015625" y="9.899999999999999">nein</tspan></text></g><rect class="djs-hit djs-hit-all" x="0" y="0" width="21" height="14" style="fill: none; stroke-opacity: 0; stroke: white; stroke-width: 15px;"/></g></g><g class="djs-group"><g class="djs-element djs-connection" data-element-id="Flow_12" style="display: block;"><g class="djs-visual"><defs><marker id="marker-14" viewBox="0 0 20 20" refX="11" refY="10" markerWidth="10" markerHeight="10" orient="auto"><path d="M 1 5 L 11 10 L 1 15 Z" style="stroke-linecap: round; stroke-linejoin: round; stroke: rgb(34, 36, 42); stroke-width: 1px; fill: rgb(34, 36, 42);"/></marker></defs><path data-corner-radius="5" style="fill: none; stroke-linecap: round; stroke-linejoin: round; stroke: rgb(34, 36, 42); stroke-width: 2px; marker-2: url('#marker-14');" d="M1320,640L1320,555"/></g><path d="M1320,640L1320,555" class="djs-hit djs-hit-stroke" style="fill: none; stroke-opacity: 0; stroke: white; stroke-width: 15px;"/></g></g><g class="djs-group"><g class="djs-element djs-shape" data-element-id="Flow_12_label" style="display: block;" transform="matrix(1 0 0 1 1303 588)"><g class="djs-visual"><text lineHeight="1.2" class="djs-label" style="font-family: Arial, sans-serif; font-size: 11px; font-weight: normal; fill: rgb(34, 36, 42);"><tspan x="0.205810546875" y="9.899999999999999">verantworten</tspan></text></g><rect class="djs-hit djs-hit-all" x="0" y="0" width="64" height="14" style="fill: none; stroke-opacity: 0; stroke: white; stroke-width: 15px;"/></g></g><g class="djs-group"><g class="djs-element djs-connection" data-element-id="Flow_13" style="display: block;"><g class="djs-visual"><defs><marker id="marker-15" viewBox="0 0 20 20" refX="11" refY="10" markerWidth="10" markerHeight="10" orient="auto"><path d="M 1 5 L 11 10 L 1 15 Z" style="stroke-linecap: round; stroke-linejoin: round; stroke: rgb(34, 36, 42); stroke-width: 1px; fill: rgb(34, 36, 42);"/></marker></defs><path data-corner-radius="5" style="fill: none; stroke-linecap: round; stroke-linejoin: round; stroke: rgb(34, 36, 42); stroke-width: 2px; marker-2: url('#marker-15');" d="M1320,475L1320,85C1320,82.5,1317.5,80,1315,80L1125,80C1122.5,80,1120,82.5,1120,85L1120,625"/></g><path d="M1320,475L1320,80L1120,80L1120,625" class="djs-hit djs-hit-stroke" style="fill: none; stroke-opacity: 0; stroke: white; stroke-width: 15px;"/></g></g><g class="djs-group"><g class="djs-element djs-connection" data-element-id="Flow_14" style="display: block;"><g class="djs-visual"><defs><marker id="marker-16" viewBox="0 0 20 20" refX="11" refY="10" markerWidth="10" markerHeight="10" orient="auto"><path d="M 1 5 L 11 10 L 1 15 Z" style="stroke-linecap: round; stroke-linejoin: round; stroke: rgb(34, 36, 42); stroke-width: 1px; fill: rgb(34, 36, 42);"/></marker></defs><path data-corner-radius="5" style="fill: none; stroke-linecap: round; stroke-linejoin: round; stroke: rgb(34, 36, 42); stroke-width: 2px; marker-2: url('#marker-16');" d="M1590,665L1850,665"/></g><path d="M1590,665L1850,665" class="djs-hit djs-hit-stroke" style="fill: none; stroke-opacity: 0; stroke: white; stroke-width: 15px;"/></g></g><g class="djs-group"><g class="djs-element djs-connection" data-element-id="Flow_15" style="display: block;"><g class="djs-visual"><defs><marker id="marker-17" viewBox="0 0 20 20" refX="11" refY="10" markerWidth="10" markerHeight="10" orient="auto"><path d="M 1 5 L 11 10 L 1 15 Z" style="stroke-linecap: round; stroke-linejoin: round; stroke: rgb(34, 36, 42); stroke-width: 1px; fill: rgb(34, 36, 42);"/></marker></defs><path data-corner-radius="5" style="fill: none; stroke-linecap: round; stroke-linejoin: round; stroke: rgb(34, 36, 42); stroke-width: 2px; marker-2: url('#marker-17');" d="M1990,665L2015,665C2017.5,665,2020,662.5,2020,660L2020,520C2020,517.5,2022.5,515,2025,515L2050,515"/></g><path d="M1990,665L2020,665L2020,515L2050,515" class="djs-hit djs-hit-stroke" style="fill: none; stroke-opacity: 0; stroke: white; stroke-width: 15px;"/></g></g><g class="djs-group"><g class="djs-element djs-connection" data-element-id="Flow_16" style="display: block;"><g class="djs-visual"><defs><marker id="marker-18" viewBox="0 0 20 20" refX="11" refY="10" markerWidth="10" markerHeight="10" orient="auto"><path d="M 1 5 L 11 10 L 1 15 Z" style="stroke-linecap: round; stroke-linejoin: round; stroke: rgb(34, 36, 42); stroke-width: 1px; fill: rgb(34, 36, 42);"/></marker></defs><path data-corner-radius="5" style="fill: none; stroke-linecap: round; stroke-linejoin: round; stroke: rgb(34, 36, 42); stroke-width: 2px; marker-2: url('#marker-18');" d="M2190,515L2215,515C2217.5,515,2220,512.5,2220,510L2220,220C2220,217.5,2222.5,215,2225,215L2250,215"/></g><path d="M2190,515L2220,515L2220,215L2250,215" class="djs-hit djs-hit-stroke" style="fill: none; stroke-opacity: 0; stroke: white; stroke-width: 15px;"/></g></g><g class="djs-group"><g class="djs-element djs-connection" data-element-id="Flow_17" style="display: block;"><g class="djs-visual"><defs><marker id="marker-19" viewBox="0 0 20 20" refX="11" refY="10" markerWidth="10" markerHeight="10" orient="auto"><path d="M 1 5 L 11 10 L 1 15 Z" style="stroke-linecap: round; stroke-linejoin: round; stroke: rgb(34, 36, 42); stroke-width: 1px; fill: rgb(34, 36, 42);"/></marker></defs><path data-corner-radius="5" style="fill: none; stroke-linecap: round; stroke-linejoin: round; stroke: rgb(34, 36, 42); stroke-width: 2px; marker-2: url('#marker-19');" d="M2320,175L2320,65C2320,62.5,2317.5,60,2315,60L525,60C522.5,60,520,62.5,520,65L520,475"/></g><path d="M2320,175L2320,60L520,60L520,475" class="djs-hit djs-hit-stroke" style="fill: none; stroke-opacity: 0; stroke: white; stroke-width: 15px;"/></g></g><g class="djs-group"><g class="djs-element djs-connection" data-element-id="Flow_18" style="display: block;"><g class="djs-visual"><defs><marker id="marker-20" viewBox="0 0 20 20" refX="11" refY="10" markerWidth="10" markerHeight="10" orient="auto"><path d="M 1 5 L 11 10 L 1 15 Z" style="stroke-linecap: round; stroke-linejoin: round; stroke: rgb(34, 36, 42); stroke-width: 1px; fill: rgb(34, 36, 42);"/></marker></defs><path data-corner-radius="5" style="fill: none; stroke-linecap: round; stroke-linejoin: round; stroke: rgb(34, 36, 42); stroke-width: 2px; marker-2: url('#marker-20');" d="M2320,705L2320,925C2320,927.5,2317.5,930,2315,930L925,930C922.5,930,920,927.5,920,925L920,705"/></g><path d="M2320,705L2320,930L920,930L920,705" class="djs-hit djs-hit-stroke" style="fill: none; stroke-opacity: 0; stroke: white; stroke-width: 15px;"/></g></g><g class="djs-group"><g class="djs-element djs-connection" data-element-id="Flow_19" style="display: block;"><g class="djs-visual"><defs><marker id="marker-21" viewBox="0 0 20 20" refX="11" refY="10" markerWidth="10" markerHeight="10" orient="auto"><path d="M 1 5 L 11 10 L 1 15 Z" style="stroke-linecap: round; stroke-linejoin: round; stroke: rgb(34, 36, 42); stroke-width: 1px; fill: rgb(34, 36, 42);"/></marker></defs><path data-corner-radius="5" style="fill: none; stroke-linecap: round; stroke-linejoin: round; stroke: rgb(34, 36, 42); stroke-width: 2px; marker-2: url('#marker-21');" d="M2320,175L2320,85C2320,82.5,2317.5,80,2315,80L725,80C722.5,80,720,82.5,720,85L720,475"/></g><path d="M2320,175L2320,80L720,80L720,475" class="djs-hit djs-hit-stroke" style="fill: none; stroke-opacity: 0; stroke: white; stroke-width: 15px;"/></g></g></g></g></svg>
